FILE "C:\TRACK1.WAV" WAVE
  TRACK 01 AUDIO
    INDEX 01 00:00:00
  TRACK 02 AUDIO
    INDEX 01 05:50:65
  TRACK 03 AUDIO
    INDEX 01 09:47:50
  TRACK 04 AUDIO
    INDEX 01 15:12:53
FILE "C:\TRACK2.WAV" WAVE
  TRACK 05 AUDIO
    INDEX 01 00:00:00 (*1)
  TRACK 06 AUDIO
    INDEX 01 02:31:40
  TRACK 07 AUDIO
    INDEX 01 06:56:13
  TRACK 08 AUDIO
    INDEX 01 10:06:25
